<svg style="display:none;" xmlns="http://www.w3.org/2000/svg"><symbol id="logo"><title>bad-css</title><g stroke="#2D2E2D"><path d="M186.93 298.17c18.23 0 31.4-11.58 31.5-28.45H199.4c-.6 7.83-5.58 12.84-12.42 12.84-8.25 0-13.36-7.22-13.36-19.45 0-12.1 5.15-19.3 13.3-19.3 6.9 0 11.92 5.1 12.4 12.8h19.02c-.05-16.8-13.55-28.4-31.4-28.4-20.68 0-33.57 12.64-33.57 34.95 0 22.32 12.84 35.02 33.56 35.02zm37.13-21.1c.04 13.5 10.87 21.1 29 21.1 18 0 29.6-8.8 29.6-22.64 0-10.97-6.15-17.2-19.28-19.5l-9.28-1.6c-6.42-1.12-9.2-2.8-9.2-6.04 0-3.38 3.3-5.54 8.5-5.54 5.34 0 9.5 2.5 9.65 6.7h18.14C281.1 236.44 271 228.2 253 228.2c-16.12 0-27.84 8.6-27.84 22.3 0 10.6 6.75 17.72 19.17 19.88l8.95 1.6c7.27 1.3 9.75 2.66 9.75 5.8 0 3.28-3.65 5.67-9.6 5.67-5.35 0-10.04-2.53-10.6-6.37h-18.8zm64.2 0c.06 13.5 10.9 21.1 29.03 21.1 18 0 29.57-8.8 29.57-22.64 0-10.97-6.14-17.2-19.27-19.5l-9.28-1.6c-6.42-1.12-9.2-2.8-9.2-6.04 0-3.38 3.3-5.54 8.5-5.54 5.34 0 9.5 2.5 9.65 6.7h18.14c-.08-13.12-10.16-21.37-28.16-21.37-16.12 0-27.84 8.6-27.84 22.3 0 10.6 6.75 17.72 19.17 19.88l8.95 1.6c7.27 1.3 9.75 2.66 9.75 5.8 0 3.28-3.65 5.67-9.6 5.67-5.35 0-10.04-2.53-10.6-6.37h-18.8z" fill="#F44336"/><path d="M183.1 174.33c14.47 0 23.85-7.83 23.85-19.68 0-8.96-7.64-15.85-16.8-16.08v-.38c7.84-1 13.75-6.85 13.75-14.63 0-10.55-8.1-16.88-21.94-16.88h-33.23v67.63h34.36zm-14.5-54h7.97c5.02 0 8.02 2.54 8.02 6.7 0 4.1-3.2 6.76-8.3 6.76h-7.7v-13.47zm0 40.36v-15.52h8.63c5.95 0 9.5 2.8 9.5 7.64 0 5.1-3.5 7.87-9.64 7.87h-8.5zm89.53 13.63h21.2l-22.1-67.64H232.3l-22.07 67.63h20.25l3.5-13.45h20.64l3.5 13.45zm-14-52.03h.36l6.5 24.56h-13.4l6.52-24.56zm41.28-15.6v67.63h28.94c20.48 0 32.57-12.65 32.57-34.3 0-21.66-12.03-33.34-32.56-33.34H285.4zm19.9 15.8h6.22c9.52 0 15.14 6.13 15.14 17.52 0 12.47-5.2 18.52-15.14 18.52h-6.23V122.5z" fill="#FFEB3B"/></g><path d="M167.87 273.06l-55.77-99.67a16.6 16.6 0 0 1-2.07-7.7v-42.38h3.95a7.8 7.8 0 0 0 7.88-7.87 7.8 7.8 0 0 0-7.88-7.9H58.83a7.8 7.8 0 0 0-7.88 7.88 7.8 7.8 0 0 0 7.88 7.88h3.94v42.36c0 2.67-.64 5.35-2.05 7.7l-55.8 99.69c-5.82 10.55 1.75 23.46 13.72 23.46h135.52c11.97 0 19.54-12.9 13.7-23.46z" fill="#F5F5F5"/><path d="M4.93 273.06c-5.83 10.55 1.74 23.46 13.7 23.46h135.53c11.97 0 19.7-12.9 13.7-23.46l-39.7-71H44.64l-39.7 71z" fill="#546E7A"/><path d="M154.15 298.41H18.65c-6.3 0-12.14-3.3-15.3-8.8a17.63 17.63 0 0 1-.15-17.65l55.78-99.67a14.4 14.4 0 0 0 1.73-6.77v-40.3h-1.88a9.82 9.82 0 0 1-9.77-9.77c0-5.37 4.42-9.78 9.77-9.78h55.15c5.36 0 9.77 4.4 9.77 9.77 0 5.34-4.4 9.75-9.77 9.75h-1.9v40.3c0 2.37.64 4.73 1.75 6.78l55.78 99.67c3.15 5.5 3 12.13-.16 17.64a17.4 17.4 0 0 1-15.3 8.82zM58.82 109.46a5.985 5.985 0 0 0 0 11.97h3.94c1.1 0 1.9.94 1.9 1.9v42.33c0 3-.8 6-2.2 8.67l-55.8 99.68a13.73 13.73 0 0 0 .16 13.7 13.63 13.63 0 0 0 11.82 6.77h135.52c4.88 0 9.45-2.52 11.8-6.77a13.73 13.73 0 0 0 .17-13.7l-55.78-99.67a18.6 18.6 0 0 1-2.2-8.66v-42.36c0-1.1.94-1.9 1.88-1.9h3.94a5.98 5.98 0 0 0 0-11.96H58.82z" fill="#2D2E2D"/><path d="M118.7 258.42l9.63-7.52-2.22-2.83-3.64 2.87-2.64-3.4 3.65-2.84-2.2-2.83-9.63 7.52 2.2 2.82 3.73-2.9 2.64 3.4-3.7 2.9 2.2 2.82zm4.95 6.33l7.37-5.77 1.98 2.53 2.25-1.75-6.17-7.9-2.25 1.77 1.98 2.53-7.36 5.76 2.2 2.83zm20.87 6.86l-2.56-3.26-7.3 2.24-.03-.06 3.93-6.54-2.55-3.27-9.62 7.52 1.93 2.46 5.58-4.35.05.06-3.77 6.43 1.18 1.5 7.16-2.1.04.06-5.58 4.36 1.93 2.46 9.62-7.52zm-1.18 13.7l-2.94-3.75 7.37-5.78-2.2-2.82-9.64 7.52 5.16 6.6 2.24-1.76z" fill="#F57C00"/><path d="M44.28 268.73c-1.2 2.56-.24 4.9 2.44 6.14 2.7 1.27 4.98.6 6.2-2l3.36-7.24-3.25-1.52-3.36 7.2c-.4.88-1 1.16-1.72.83-.75-.35-.96-1.08-.55-1.95l-3.12-1.45zm9.75 5.35c-1.02 2.2.17 4.28 3.14 5.67 2.95 1.36 5.5.8 6.57-1.46.84-1.8.3-3.3-1.66-4.66l-1.4-.97c-.97-.67-1.3-1.16-1.04-1.68.25-.56.96-.66 1.8-.26.88.4 1.37 1.13 1.08 1.83l2.96 1.38c1-2.16-.03-4.28-2.98-5.65-2.63-1.23-5.2-.72-6.25 1.52-.8 1.74-.25 3.42 1.62 4.72l1.34.94c1.1.78 1.4 1.2 1.16 1.7-.25.55-1.03.66-2 .2-.88-.4-1.45-1.18-1.25-1.85l-3.07-1.43z" fill="#FFEB3B"/><path d="M56.9 248.59c2.96-1.44 4.18-4.36 2.86-7.1l-3.1 1.5c.53 1.32.12 2.52-1 3.07-1.33.65-2.73-.12-3.7-2.1-.95-1.97-.7-3.55.64-4.2 1.12-.54 2.33-.1 3.02 1.1l3.1-1.5c-1.35-2.72-4.46-3.54-7.36-2.12-3.35 1.63-4.44 4.7-2.68 8.33 1.77 3.63 4.86 4.68 8.22 3.04zm4.36-6.36c1.07 2.2 3.43 2.57 6.38 1.13 2.92-1.43 4.1-3.77 3-6.02-.86-1.78-2.35-2.3-4.67-1.64l-1.63.48c-1.13.33-1.7.27-1.97-.25-.27-.55.1-1.16.94-1.57.88-.43 1.75-.35 2.1.32l2.95-1.44c-1.05-2.12-3.34-2.66-6.26-1.24-2.63 1.28-3.85 3.6-2.76 5.83.83 1.72 2.5 2.34 4.68 1.7l1.58-.44c1.28-.36 1.8-.34 2.04.17.26.53-.14 1.2-1.1 1.68-.88.42-1.84.38-2.23-.2l-3.04 1.5zm10.42-5.08c1.07 2.18 3.43 2.55 6.38 1.12 2.92-1.43 4.1-3.77 3-6.02-.86-1.78-2.35-2.3-4.67-1.64l-1.64.48c-1.13.32-1.7.27-1.97-.26-.27-.54.1-1.15.93-1.57.87-.4 1.74-.34 2.1.34l2.94-1.44c-1.05-2.12-3.34-2.66-6.26-1.24-2.6 1.28-3.83 3.6-2.74 5.83.84 1.7 2.5 2.33 4.68 1.7l1.58-.45c1.28-.37 1.8-.34 2.04.17.26.53-.14 1.2-1.1 1.68-.88.42-1.84.38-2.23-.2l-3.05 1.5z" fill="#2196F3"/><g fill="#F5F5F5" transform="translate(.4 105.66)"><circle cx="82.61" cy="108.34" r="9"/><circle cx="99.11" cy="135.84" r="8.5"/><circle cx="83.11" cy="163.84" r="3.5"/><circle cx="95.61" cy="181.34" r="2"/></g><g><g fill="#B2FF71" transform="translate(57)"><circle cx="11" cy="47" r="11"/><circle cx="44" cy="20" r="14"/></g><g fill="#76FF03" transform="translate(57)"><circle cx="39.5" cy="90.5" r="3.5"/><circle cx="42.5" cy="103.5" r="1.5"/><circle cx="9.5" cy="66.5" r="1.5"/><circle cx="49" cy="72" r="8"/></g><g fill="#64DD17" transform="translate(57)"><circle cx="12" cy="90" r="7"/><circle cx="29.5" cy="76.5" r="5.5"/><circle cx="40.5" cy="55.5" r="5.5"/><circle cx="20.5" cy="5.5" r="5.5"/></g></g></symbol></svg>
