<svg class="home-logo" xmlns="http://www.w3.org/2000/svg" viewBox="0 0 214.08 34.61">
  <title>
    Aleksandr Fesenko
    Front-End Developer
  </title>
  <path fill="#2a2a2a" d="M55.6 21.1a2.6 2.6 0 0 1-1.32.58 3.9 3.9 0 0 1-1.35-.08 8.14 8.14 0 0 1-1.34-.45 13.53 13.53 0 0 0-1.3-.5l.8.64q-.32.85-.6 1.7t-.5 1.5l-.44 1.4.53.22a4.34 4.34 0 0 0 .57.18 1.32 1.32 0 0 1 .3-.6.8.8 0 0 1 .64-.26.72.72 0 0 1 .56.2.67.67 0 0 1 .2.44.6.6 0 0 1-.18.44.75.75 0 0 1-.57.2h-.65a2.26 2.26 0 0 0 .13.78.54.54 0 0 0 .26.4h-.65l-.08-.4a2.5 2.5 0 0 1 0-.4 2.3 2.3 0 0 1 0-.44L50 26.5a3.4 3.4 0 0 1-.56-.13l-.23.9-.2.88q-.1.48-.2 1.08-.07.6-.13 1.5l-.47-.28v-.68a7.92 7.92 0 0 1 0-.84q0-.5.12-1.17t.27-1.7l-.42-.2a.42.42 0 0 0-.18-.07l.4-.46h.15l.12.05q.05-.3.2-.95t.35-1.4l.37-1.45.28-1.15-.3-.05a1.72 1.72 0 0 0-.8.1 2.4 2.4 0 0 0-.72.48 5.4 5.4 0 0 0-.72.8q-.36.5-.77 1.16l-.85-.54a4.74 4.74 0 0 1 .9-1.3 4.26 4.26 0 0 1 1.23-.86 3.74 3.74 0 0 1 1.88-.3 7.92 7.92 0 0 1 1.37.22 11.07 11.07 0 0 0 1.4.26 6.82 6.82 0 0 0 1.52 0 5.88 5.88 0 0 0 1.78-.5zm-4 5.33a.46.46 0 0 0 .3-.1.27.27 0 0 0 0-.43.46.46 0 0 0-.3-.1.57.57 0 0 0-.44.15.83.83 0 0 0-.2.4l.33.06zm9.13-.37l-3.5 4.6-.23-.1a.94.94 0 0 1-.3-.16 1.44 1.44 0 0 1-.2-.2 2 2 0 0 1-.17-.28 3.92 3.92 0 0 1 0-1.15 16.3 16.3 0 0 1 .3-1.64 19.66 19.66 0 0 1 .8-2.54l-.24-.13-.25-.13-.27-.16-.3-.23a1.93 1.93 0 0 1-.24-.24 1 1 0 0 1-.3-.6.85.85 0 0 1 .15-.57.74.74 0 0 1 .46-.3 1 1 0 0 1 .7.18.86.86 0 0 1 .36.37.78.78 0 0 1 .07.4 1.1 1.1 0 0 1-.13.4 3.4 3.4 0 0 1-.2.36 4 4 0 0 0 .5.3l.23.12.56.25-.18.36q-.2.36-.48 1a14.05 14.05 0 0 0-.5 1.38 9.33 9.33 0 0 0-.4 1.5 3.2 3.2 0 0 0 .05 1.33l3.42-4.34zM57 23.7a1.3 1.3 0 0 0 .3-.54.2.2 0 0 0-.1-.23.38.38 0 0 0-.26 0 .5.5 0 0 0-.26.18.38.38 0 0 0-.05.32.58.58 0 0 0 .34.34zm7.82 4.9l-.07.05a7.23 7.23 0 0 1-.53.62 6.2 6.2 0 0 1-.68.62 4.17 4.17 0 0 1-.77.47 1.45 1.45 0 0 1-.77.15 2.1 2.1 0 0 1-.58-.14 1.27 1.27 0 0 1-.58-.46 1.78 1.78 0 0 1-.3-.93 4.1 4.1 0 0 1 .3-1.56 3.86 3.86 0 0 1 .43-.9 6.07 6.07 0 0 1 .6-.78 5.2 5.2 0 0 1 .67-.6 2.9 2.9 0 0 1 .65-.4 1.17 1.17 0 0 1 .8-.16 1.05 1.05 0 0 1 .52.3 1.4 1.4 0 0 1 .3.5 1.54 1.54 0 0 1 .08.45 7.86 7.86 0 0 1-.13 1.5 6.16 6.16 0 0 1-.3 1.1l.7-.9a.43.43 0 0 1 .08-.12l1.3-1.64.22.22zM62 30.28a1.53 1.53 0 0 0 .64-.2 2.6 2.6 0 0 0 .8-.7 4.73 4.73 0 0 0 .7-1.28 6 6 0 0 0 .34-1.94v-.43a1.08 1.08 0 0 0-.13-.45A.53.53 0 0 0 64 25a1.1 1.1 0 0 0-.66.13 1.63 1.63 0 0 0-.6.58 5.74 5.74 0 0 0-.54 1 9 9 0 0 0-.4 1.2 6.55 6.55 0 0 0-.23 1.17 2.45 2.45 0 0 0 .05.87.4.4 0 0 0 .38.34zm12-4.22l-3.4 4.45-.34.24a2.1 2.1 0 0 1-.26-.9 8.7 8.7 0 0 1 .06-1.46 15 15 0 0 1 .5-2.4 1 1 0 0 0-.62.5 8.5 8.5 0 0 0-.8 1.3 21.7 21.7 0 0 0-1.1 2.6l.1.22a.76.76 0 0 1-.4-.1 1.07 1.07 0 0 1-.28-.23 1.15 1.15 0 0 1-.23-.34 4.1 4.1 0 0 1 0-1.22q.1-.66.35-1.76a22.7 22.7 0 0 1 .9-2.76l1 .5a15.25 15.25 0 0 0-.84 1.74 14.15 14.15 0 0 0-.54 1.62 5.22 5.22 0 0 0-.2 1.62l.38-.84.52-1.08q.3-.58.66-1.14a8.06 8.06 0 0 1 .7-1 4 4 0 0 1 .7-.68.83.83 0 0 1 .68-.18v.5q-.36 1-.6 1.87t-.4 1.6A4.6 4.6 0 0 0 70.4 30l3.33-4.23zm1.46 5.17l-.23-.1h-.06a3.88 3.88 0 0 1-.36-1.47 13.53 13.53 0 0 1 0-2.27 28.4 28.4 0 0 1 .58-3.68l-1-.1-.1-.3 1.14.1.23-1.06.35-1.14 1.5 1.17a1.1 1.1 0 0 0-.2.28l-.2.36-.24.47 1.06.1-.07.38-1.2-.13a11.8 11.8 0 0 0-.54 1.33 14 14 0 0 0-.47 1.7 14.65 14.65 0 0 0-.28 1.9 8.13 8.13 0 0 0 .06 1.93zm4.25-5.63l4.47-.14v.4l-4.7.32zm11.72-4.5a3.3 3.3 0 0 1 .9.12 2.73 2.73 0 0 1 .66.27 1.52 1.52 0 0 1 .4.33 1.42 1.42 0 0 1 .2.3l-.94.57a1.9 1.9 0 0 0-.16-.6 1.2 1.2 0 0 0-.35-.4 1 1 0 0 0-.66-.2 2.47 2.47 0 0 0-1.47.42 2.3 2.3 0 0 0-.8 1 2.18 2.18 0 0 0-.2 1.14 1.68 1.68 0 0 0 .48 1 3.8 3.8 0 0 0-1.4.45 2.65 2.65 0 0 0-.5.37 2.45 2.45 0 0 0-.44.53 2.8 2.8 0 0 0-.3.72 3.34 3.34 0 0 0-.13.93 2.37 2.37 0 0 0 .15.78 2.46 2.46 0 0 0 .38.7 1.85 1.85 0 0 0 .6.5 1.6 1.6 0 0 0 .75.2 3.25 3.25 0 0 0 1.6-.43 8.3 8.3 0 0 0 1.35-.93 9.25 9.25 0 0 0 1.3-1.35l.22.23a11 11 0 0 1-1.35 1.5 8.76 8.76 0 0 1-1.45 1.07 3.7 3.7 0 0 1-1.77.52 2.2 2.2 0 0 1-1.4-.35 2.37 2.37 0 0 1-.82-1 3.33 3.33 0 0 1-.26-1.36 4 4 0 0 1 .27-1.45 3.7 3.7 0 0 1 .8-1.26 2.84 2.84 0 0 1 1.3-.77 4.12 4.12 0 0 1 .14-1.78 2.9 2.9 0 0 1 .32-.66 2.16 2.16 0 0 1 .55-.58 2.8 2.8 0 0 1 .84-.4 4.08 4.08 0 0 1 1.22-.15zm10.23 4.96l-3.4 4.45-.34.24a2.1 2.1 0 0 1-.2-.92 8.7 8.7 0 0 1 .05-1.45 15 15 0 0 1 .5-2.4 1 1 0 0 0-.62.5 8.5 8.5 0 0 0-.8 1.3 21.7 21.7 0 0 0-1.1 2.6l.07.23a.76.76 0 0 1-.4-.1 1.07 1.07 0 0 1-.27-.23 1.15 1.15 0 0 1-.23-.34 4.1 4.1 0 0 1 0-1.22q.1-.66.35-1.76a22.7 22.7 0 0 1 .9-2.76l1 .5a15.25 15.25 0 0 0-.84 1.74 14.15 14.15 0 0 0-.53 1.62 5.22 5.22 0 0 0-.2 1.62l.43-.8q.23-.52.52-1.1t.6-1.16a8.06 8.06 0 0 1 .7-1 4 4 0 0 1 .72-.68.83.83 0 0 1 .67-.18v.5q-.35 1-.6 1.87t-.4 1.6a4.6 4.6 0 0 0-.1 1.32l3.32-4.23zm3.97 5.54a.88.88 0 0 1-.27-.34 3.83 3.83 0 0 1-.3-.77 7.13 7.13 0 0 1-.24-1.16 8.74 8.74 0 0 1 0-1.46q-.22.32-.52.68a6 6 0 0 1-.64.65 3.68 3.68 0 0 1-.68.5 1.24 1.24 0 0 1-.65.15.43.43 0 0 1-.38-.38 2.4 2.4 0 0 1 0-.9 7.36 7.36 0 0 1 .25-1.2 8.22 8.22 0 0 1 .47-1.22 6.66 6.66 0 0 1 .6-1 2 2 0 0 1 .7-.64 1.45 1.45 0 0 1 .5-.12.7.7 0 0 1 .38.07.77.77 0 0 1 .18.15 1.1 1.1 0 0 1 .15.3q.14-.77.34-1.67t.46-2l1.5 1.17a17.6 17.6 0 0 0-1.36 3q-.23.67-.42 1.4a11.63 11.63 0 0 0-.28 1.55 9.55 9.55 0 0 0 0 1.6 8 8 0 0 0 .22 1.65zm-2.57-2.75a1.7 1.7 0 0 0 .84-.38 3.8 3.8 0 0 0 .92-1q0-.4.1-.85c0-.3.07-.62.13-1a1.73 1.73 0 0 0-.4-.67.6.6 0 0 0-.63-.14.93.93 0 0 0-.35.38 5.25 5.25 0 0 0-.4.77 9.42 9.42 0 0 0-.37 1 5.36 5.36 0 0 0-.22.95 2 2 0 0 0 0 .72.3.3 0 0 0 .37.2zm14.62-7.77a3.5 3.5 0 0 1 1.8.4 2.33 2.33 0 0 1 1 1.05 3.42 3.42 0 0 1 .28 1.5 6.66 6.66 0 0 1-.27 1.7 10.34 10.34 0 0 1-.67 1.7 9.86 9.86 0 0 1-.9 1.5 5.3 5.3 0 0 1-1 1.05 1.6 1.6 0 0 1-.93.4 2 2 0 0 1-2-1.12 2.72 2.72 0 0 1-.25-1.12l.6-.25a3.43 3.43 0 0 0 .06.7 3.5 3.5 0 0 0 .22.64 1.4 1.4 0 0 0 .4.54V27.1q0-.87.14-1.92t.26-2.18l1.5 1.17a4.4 4.4 0 0 0-.7 1.24 10.9 10.9 0 0 0-.5 1.78 14.43 14.43 0 0 0-.25 2.7l.22.06h.26a1.58 1.58 0 0 0 1.1-.62 6.4 6.4 0 0 0 1-1.57 10.85 10.85 0 0 0 .74-2 6.5 6.5 0 0 0 .22-2 2.75 2.75 0 0 0-.57-1.57 1.87 1.87 0 0 0-1.56-.62 3.2 3.2 0 0 0-2.12.83 7.57 7.57 0 0 0-1.75 2.2l-.85-.47a7 7 0 0 1 1.15-1.53 5.2 5.2 0 0 1 .62-.56 4.94 4.94 0 0 1 .77-.48 4.22 4.22 0 0 1 .9-.33 4.5 4.5 0 0 1 1.07-.15zm8.33 7.3q-.18.24-.5.62a6.28 6.28 0 0 1-.73.72 4.76 4.76 0 0 1-.85.58 1.56 1.56 0 0 1-.87.2 2.1 2.1 0 0 1-.58-.14 1.27 1.27 0 0 1-.58-.46 1.78 1.78 0 0 1-.3-.93 4.12 4.12 0 0 1 .28-1.55 3.86 3.86 0 0 1 .44-.9 6 6 0 0 1 .6-.78 5.23 5.23 0 0 1 .67-.6 2.92 2.92 0 0 1 .64-.4 1.24 1.24 0 0 1 1-.1.47.47 0 0 1 .34.48 2.42 2.42 0 0 1-.14.72 3.8 3.8 0 0 1-.32.67 5 5 0 0 1-.44.62 5.93 5.93 0 0 1-.5.52 9 9 0 0 1-1.33 1.06 3.18 3.18 0 0 0-.1 1.06.4.4 0 0 0 .4.4 2.56 2.56 0 0 0 1.72-.87l2.72-3.47.2.23zm-1.6-3.3a1 1 0 0 0-.5.42 4.26 4.26 0 0 0-.4.76 8.87 8.87 0 0 0-.34 1l-.28 1.05a9.93 9.93 0 0 0 1.52-1.55 3.5 3.5 0 0 0 .6-1.15.52.52 0 0 0-.08-.57.5.5 0 0 0-.48.06zm8.7-.4l-2.67 5.26-.74-.2-1.3-5.9 1 .1 1 5.4 2.45-4.95zm5.55 3.7q-.18.24-.5.62a6.36 6.36 0 0 1-.73.72 4.76 4.76 0 0 1-.85.58 1.56 1.56 0 0 1-.87.2 2.1 2.1 0 0 1-.58-.14 1.26 1.26 0 0 1-.58-.46 1.78 1.78 0 0 1-.3-.93 4.12 4.12 0 0 1 .3-1.55 3.86 3.86 0 0 1 .43-.9 6.12 6.12 0 0 1 .6-.78 5.17 5.17 0 0 1 .67-.6 2.9 2.9 0 0 1 .65-.4 1.24 1.24 0 0 1 1-.1.47.47 0 0 1 .33.48 2.42 2.42 0 0 1-.14.72 3.8 3.8 0 0 1-.33.67 4.92 4.92 0 0 1-.44.62 5.93 5.93 0 0 1-.5.52 9.1 9.1 0 0 1-1.33 1.06 3.16 3.16 0 0 0-.1 1.06.4.4 0 0 0 .4.4 2.56 2.56 0 0 0 1.72-.87l2.72-3.47.22.23zm-1.6-3.3a1 1 0 0 0-.5.42 4.26 4.26 0 0 0-.4.76 8.87 8.87 0 0 0-.34 1l-.27 1.05a10 10 0 0 0 1.52-1.55 3.55 3.55 0 0 0 .6-1.1.52.52 0 0 0-.08-.57.5.5 0 0 0-.52 0zm4.74 5.43l-.23-.06h-.05a2.73 2.73 0 0 1-.38-1.5v-1.17q0-.67.16-1.6.13-.95.37-2.17t.64-2.77l1.52 1.17a14.07 14.07 0 0 0-1.2 2.36 16.1 16.1 0 0 0-.75 2.44 8.37 8.37 0 0 0-.14 2.8l.16-.3 3.1-3.87.22.23zm7.47-1.9l-.07.05a7.24 7.24 0 0 1-.53.62 6.1 6.1 0 0 1-.68.62 4.16 4.16 0 0 1-.77.47 1.45 1.45 0 0 1-.77.15 2.1 2.1 0 0 1-.58-.14 1.26 1.26 0 0 1-.58-.46 1.78 1.78 0 0 1-.3-.92 4.1 4.1 0 0 1 .28-1.55 3.86 3.86 0 0 1 .44-.9 6 6 0 0 1 .6-.78 5.3 5.3 0 0 1 .67-.6 2.94 2.94 0 0 1 .64-.4 1.17 1.17 0 0 1 .8-.13 1.06 1.06 0 0 1 .5.3 1.4 1.4 0 0 1 .3.5 1.53 1.53 0 0 1 .1.45 7.94 7.94 0 0 1-.14 1.5 6.25 6.25 0 0 1-.3 1.08l.7-.9a.43.43 0 0 1 .08-.1l1.3-1.65.22.23zm-2.8 1.67a1.54 1.54 0 0 0 .63-.2 2.6 2.6 0 0 0 .8-.7 4.7 4.7 0 0 0 .7-1.28 6 6 0 0 0 .34-1.95v-.43a1.1 1.1 0 0 0-.13-.45.53.53 0 0 0-.32-.26 1.1 1.1 0 0 0-.66.13 1.63 1.63 0 0 0-.6.58 5.8 5.8 0 0 0-.54 1 9.22 9.22 0 0 0-.4 1.2 6.7 6.7 0 0 0-.23 1.17 2.44 2.44 0 0 0 .05.87.4.4 0 0 0 .37.34zm10.17-6.67a.8.8 0 0 1 .64.53 2.27 2.27 0 0 1 .08 1 5.05 5.05 0 0 1-.35 1.3 9.22 9.22 0 0 1-.65 1.3 6.58 6.58 0 0 1-.84 1.1 2.7 2.7 0 0 1-.88.68 1.22 1.22 0 0 1-1 .13 1.1 1.1 0 0 1-.5-.48 2 2 0 0 1-.23-.9l.17-.45.1.5a.8.8 0 0 0 .1.3.34.34 0 0 0 .23.15 1.1 1.1 0 0 0 .43 0 1.45 1.45 0 0 0 .54-.4 10.2 10.2 0 0 0 .73-.86 11.28 11.28 0 0 0 .74-1.08 8.78 8.78 0 0 0 .56-1.05 2.1 2.1 0 0 0 .2-.8.3.3 0 0 0-.3-.32 2 2 0 0 0-1 .3 5.36 5.36 0 0 0-1 .75 8.74 8.74 0 0 0-.83.9q-.37.47-.6.8a9.5 9.5 0 0 0-.5 2.43 20.07 20.07 0 0 0-.06 2.37 18.22 18.22 0 0 0 .16 1.84 5.57 5.57 0 0 1 .1.85.13.13 0 0 1-.1.13.33.33 0 0 1-.16 0l-.23-.1a26.85 26.85 0 0 1-.36-4 20.76 20.76 0 0 1 .22-3.32 10.48 10.48 0 0 1 .68-2.5 4.94 4.94 0 0 1 1-1.64.34.34 0 0 1 .3 0 3.4 3.4 0 0 1 .5.13 5 5 0 0 1 .62.24 4.5 4.5 0 0 0-.73.85 11.6 11.6 0 0 0-.86 1.43q.3-.34.67-.72a8 8 0 0 1 .8-.68 4 4 0 0 1 .8-.5 1.74 1.74 0 0 1 .84-.22zm6.22 4.77q-.18.25-.5.63a6.36 6.36 0 0 1-.73.72 4.76 4.76 0 0 1-.85.58 1.56 1.56 0 0 1-.87.2 2.1 2.1 0 0 1-.57-.14 1.26 1.26 0 0 1-.58-.46 1.78 1.78 0 0 1-.3-.93 4.12 4.12 0 0 1 .3-1.55 3.86 3.86 0 0 1 .43-.9 6.12 6.12 0 0 1 .6-.78 5.17 5.17 0 0 1 .67-.6 2.9 2.9 0 0 1 .65-.4 1.24 1.24 0 0 1 1-.1.47.47 0 0 1 .34.48 2.42 2.42 0 0 1-.14.72 3.8 3.8 0 0 1-.32.67 4.92 4.92 0 0 1-.44.62 5.93 5.93 0 0 1-.5.52 9.1 9.1 0 0 1-1.33 1.06 3.16 3.16 0 0 0-.08 1.06.4.4 0 0 0 .38.4 2.56 2.56 0 0 0 1.73-.87l2.72-3.47.22.23zm-1.6-3.28a1 1 0 0 0-.5.4 4.26 4.26 0 0 0-.4.76 8.87 8.87 0 0 0-.34 1l-.28 1.05a10 10 0 0 0 1.52-1.55 3.55 3.55 0 0 0 .6-1.1.52.52 0 0 0-.08-.57.5.5 0 0 0-.52 0zm6.63 6.5l-.28-.1a1 1 0 0 1-.56-.88 6.3 6.3 0 0 1 0-1.66 19.46 19.46 0 0 1 .36-2.1q.25-1.1.56-2.14l-.34-.17-.34-.2-3.1 4-.24-.26 3.04-3.93-.3-.23a2 2 0 0 1-.24-.24 1 1 0 0 1-.3-.62.85.85 0 0 1 .15-.56.73.73 0 0 1 .48-.3 1 1 0 0 1 .7.18.86.86 0 0 1 .36.36.77.77 0 0 1 .07.4 1.1 1.1 0 0 1-.1.4 3.17 3.17 0 0 1-.22.36 4.06 4.06 0 0 0 .52.3l.23.14.67.24-.18.36a6.67 6.67 0 0 0-.44 1.14q-.24.78-.43 1.7a13.52 13.52 0 0 0-.25 1.8 4.37 4.37 0 0 0 .1 1.46zm-.5-7.87a1.3 1.3 0 0 0 .28-.55.2.2 0 0 0-.08-.23.4.4 0 0 0-.27 0 .5.5 0 0 0-.26.18.37.37 0 0 0-.05.3.58.58 0 0 0 .34.35zM0 13.2V1.75A1.55 1.55 0 0 1 1.76 0h7a1.55 1.55 0 0 1 1.76 1.76V13.2h-2.6V9.66H2.63v3.52H0zM7.9 2.6H2.65v4.43H7.9V2.6zm14.54 10.6h-7a1.55 1.55 0 0 1-1.76-1.77V0h2.64v10.6h6.15v2.64zm5.76-5.3v2.68h6.14v2.64h-7a1.55 1.55 0 0 1-1.76-1.76v-9.7A1.55 1.55 0 0 1 27.34 0h7v2.6H28.2v2.68h3.5l-.88 2.64H28.2zm11.88-2.64h1.67L43.6 0h2.64l-1.86 5.3a2.13 2.13 0 0 1 1.24.52 3.18 3.18 0 0 1 .8 1.22l2.45 6.15h-2.63L44 7.9h-3.92v5.27h-2.63V0h2.64v5.3zm20.7-2.68h-7v2.67h6.15A1.55 1.55 0 0 1 61.69 7v4.4a1.55 1.55 0 0 1-1.77 1.76H51.1v-2.63H59V7.9h-6.14a1.55 1.55 0 0 1-1.76-1.74v-4.4A1.56 1.56 0 0 1 52.86 0h8.8zm3.98 10.6V1.75A1.55 1.55 0 0 1 66.52 0h7a1.55 1.55 0 0 1 1.78 1.76V13.2h-2.63V9.66H67.4v3.52h-2.64zm7.9-10.6H67.4v4.43h5.26V2.6zm5.75 10.6V1.75A1.55 1.55 0 0 1 80.18 0h7A1.55 1.55 0 0 1 89 1.76V13.2h-2.67V2.6H81v10.6h-2.6zm13.67 0V0h8.8a1.55 1.55 0 0 1 1.75 1.77v9.67a1.55 1.55 0 0 1-1.76 1.76h-8.8zM100 2.6h-5.3v8h5.3v-8zm14.18 5.32l2.1 5.27h-2.63l-2.2-5.28h-3.1v5.27h-2.63V1.76A1.55 1.55 0 0 1 107.48 0h7a1.55 1.55 0 0 1 1.76 1.77v4.4a1.55 1.55 0 0 1-1.76 1.75h-.33zm-.54-2.64V2.6h-5.27v2.68h5.27zm15.88 2.64v5.27h-2.64V1.76A1.55 1.55 0 0 1 128.64 0h7v2.6h-6.15v2.68h3.5l-.88 2.64h-2.64zm11.9 0v2.68h6.14v2.64h-7a1.55 1.55 0 0 1-1.76-1.76v-9.7A1.55 1.55 0 0 1 140.56 0h7v2.6h-6.15v2.68h3.53L144 7.92h-2.64zm18.93-5.32h-7v2.67h6.15a1.55 1.55 0 0 1 1.76 1.75v4.4a1.55 1.55 0 0 1-1.76 1.76h-8.8v-2.63h7.92V7.9h-6.15a1.55 1.55 0 0 1-1.76-1.74v-4.4A1.56 1.56 0 0 1 152.48 0h8.8zM167 7.92v2.68h6.15v2.64h-7a1.55 1.55 0 0 1-1.76-1.76v-9.7A1.55 1.55 0 0 1 166.14 0h7v2.6H167v2.68h3.52l-.88 2.64H167zm9.23 5.27V1.75A1.55 1.55 0 0 1 178 0h7a1.55 1.55 0 0 1 1.76 1.76V13.2h-2.63V2.6h-5.27v10.6h-2.64zm16.3-7.92h1.66L196 0h2.64l-1.83 5.3a2.13 2.13 0 0 1 1.25.52 3.18 3.18 0 0 1 .8 1.22l2.45 6.15h-2.64l-2.2-5.28h-3.96v5.27h-2.64V0h2.64v5.3zm21.55 6.15a1.55 1.55 0 0 1-1.76 1.76h-7a1.55 1.55 0 0 1-1.76-1.77V1.77A1.55 1.55 0 0 1 205.32 0h7a1.55 1.55 0 0 1 1.76 1.77v9.67zm-7.9-8.83v8h5.26v-8h-5.27z"/>
</svg>
